<svg width="56" height="56" viewBox="0 0 56 56" fill="none" xmlns="http://www.w3.org/2000/svg">
<path d="M39 29.9333V11C39 8.79086 37.2091 7 35 7H30M39 45.2222V46C39 48.2091 37.2091 50 35 50H9C6.79086 50 5 48.2091 5 46V11C5 8.79086 6.79086 7 9 7H14" stroke="#B70000" stroke-width="2"/>
<path d="M30 11H34C34.5523 11 35 11.4477 35 12V32M14 11H10C9.44772 11 9 11.4477 9 12V45C9 45.5523 9.44772 46 10 46H34C34.5523 46 35 45.5523 35 45V44.4118" stroke="#B70000" stroke-width="2"/>
<rect x="14" y="5" width="16" height="8" rx="1" stroke="#B70000" stroke-width="2"/>
<path d="M29 31C29 35 22 38 22 38C22 38 15 35 15 31V22C16.5 22.167 20 22 22 20C24 22 27.5 22.167 29 22V31Z" stroke="#B70000" stroke-width="2" stroke-linecap="round" stroke-linejoin="round"/>
<path d="M50 48L45.657 43.657M45.657 43.657C46.3998 42.9141 46.9891 42.0322 47.3912 41.0616C47.7932 40.0909 48.0002 39.0506 48.0002 38C48.0002 36.9494 47.7932 35.9091 47.3912 34.9385C46.9891 33.9678 46.3998 33.0859 45.657 32.343C44.9141 31.6001 44.0321 31.0108 43.0615 30.6088C42.0909 30.2067 41.0506 29.9998 40 29.9998C38.9494 29.9998 37.909 30.2067 36.9384 30.6088C35.9678 31.0108 35.0858 31.6001 34.343 32.343C32.8426 33.8434 31.9998 35.8782 31.9998 38C31.9998 40.1218 32.8426 42.1567 34.343 43.657C35.8433 45.1574 37.8782 46.0002 40 46.0002C42.1217 46.0002 44.1566 45.1574 45.657 43.657Z" stroke="#B70000" stroke-width="2" stroke-linecap="round" stroke-linejoin="round"/>
<path d="M37.5 30.5V45.5" stroke="#B70000" stroke-width="2" stroke-linejoin="round"/>
</svg>
