<svg width="56" height="56" viewBox="0 0 56 56" fill="none" xmlns="http://www.w3.org/2000/svg">
<g clip-path="url(#clip0_213_1966)">
<path d="M19.5 33.4518C19.5 32.926 19.074 32.5 18.5482 32.5H17.4525C16.926 32.5 16.5 32.926 16.5 33.4518C16.5 33.8853 16.203 34.2572 15.7987 34.4162C15.7347 34.4422 15.6715 34.4687 15.609 34.4957C15.2108 34.6682 14.7375 34.6158 14.43 34.309C14.2514 34.1308 14.0095 34.0308 13.7572 34.0308C13.505 34.0308 13.2631 34.1308 13.0845 34.309L12.309 35.0845C12.1308 35.2631 12.0308 35.505 12.0308 35.7572C12.0308 36.0095 12.1308 36.2514 12.309 36.43C12.6165 36.7375 12.669 37.21 12.495 37.609C12.4677 37.6718 12.4414 37.7351 12.4162 37.7987C12.2572 38.203 11.8853 38.5 11.4518 38.5C10.926 38.5 10.5 38.926 10.5 39.4518V40.5482C10.5 41.074 10.926 41.5 11.4518 41.5C11.8853 41.5 12.2572 41.797 12.4162 42.2013C12.4422 42.2653 12.4685 42.3285 12.495 42.391C12.6682 42.7892 12.6158 43.2625 12.309 43.57C12.1308 43.7486 12.0308 43.9905 12.0308 44.2427C12.0308 44.495 12.1308 44.7369 12.309 44.9155L13.0845 45.691C13.2631 45.8692 13.505 45.9692 13.7572 45.9692C14.0095 45.9692 14.2514 45.8692 14.43 45.691C14.7375 45.3835 15.21 45.331 15.609 45.5043C15.6715 45.5318 15.7347 45.5582 15.7987 45.5837C16.203 45.7427 16.5 46.1148 16.5 46.5483C16.5 47.074 16.926 47.5 17.4518 47.5H18.5482C19.074 47.5 19.5 47.074 19.5 46.5483C19.5 46.1148 19.797 45.7428 20.2013 45.583C20.2653 45.558 20.3285 45.532 20.391 45.505C20.7892 45.331 21.2625 45.3842 21.5693 45.691C21.7478 45.8694 21.9899 45.9696 22.2424 45.9696C22.4948 45.9696 22.7369 45.8694 22.9155 45.691L23.691 44.9155C23.8692 44.7369 23.9692 44.495 23.9692 44.2427C23.9692 43.9905 23.8692 43.7486 23.691 43.57C23.3835 43.2625 23.331 42.79 23.5043 42.391C23.5318 42.3285 23.5582 42.2653 23.5837 42.2013C23.7427 41.797 24.1148 41.5 24.5483 41.5C25.074 41.5 25.5 41.074 25.5 40.5482V39.4525C25.5 38.9268 25.074 38.5008 24.5483 38.5008C24.1148 38.5008 23.7428 38.2037 23.583 37.7995C23.5578 37.7358 23.5316 37.6725 23.5043 37.6097C23.3318 37.2115 23.3842 36.7383 23.691 36.4308C23.8692 36.2522 23.9692 36.0102 23.9692 35.758C23.9692 35.5058 23.8692 35.2638 23.691 35.0853L22.9155 34.3098C22.7369 34.1316 22.495 34.0315 22.2427 34.0315C21.9905 34.0315 21.7486 34.1316 21.57 34.3098C21.2625 34.6173 20.79 34.6698 20.391 34.4965C20.3282 34.4689 20.265 34.4424 20.2013 34.417C19.797 34.2573 19.5 33.8845 19.5 33.4518Z" stroke="#B70000" stroke-width="2"/>
<path d="M21 40C21 40.7956 20.6839 41.5587 20.1213 42.1213C19.5587 42.6839 18.7956 43 18 43C17.2044 43 16.4413 42.6839 15.8787 42.1213C15.3161 41.5587 15 40.7956 15 40C15 39.2044 15.3161 38.4413 15.8787 37.8787C16.4413 37.3161 17.2044 37 18 37C18.7956 37 19.5587 37.3161 20.1213 37.8787C20.6839 38.4413 21 39.2044 21 40Z" stroke="#B70000" stroke-width="2"/>
</g>
<path d="M40 31V8C40 6.34315 38.6569 5 37 5H9C7.34315 5 6 6.34315 6 8V48C6 49.6569 7.34314 51 9 51H39" stroke="#B70000" stroke-width="2"/>
<rect x="37" y="47" width="14" height="4" rx="2" stroke="#B70000" stroke-width="2"/>
<rect x="35" y="43" width="14" height="4" rx="2" stroke="#B70000" stroke-width="2"/>
<rect x="37" y="39" width="14" height="4" rx="2" stroke="#B70000" stroke-width="2"/>
<rect x="35" y="35" width="14" height="4" rx="2" stroke="#B70000" stroke-width="2"/>
<rect x="36" y="31" width="14" height="4" rx="2" stroke="#B70000" stroke-width="2"/>
<rect x="12" y="24" width="5" height="5" rx="1" stroke="#B70000" stroke-width="2"/>
<rect x="21" y="21" width="5" height="8" rx="1" stroke="#B70000" stroke-width="2"/>
<rect x="30" y="18" width="5" height="11" rx="1" stroke="#B70000" stroke-width="2"/>
<path d="M12 19L32 11M32 11L28.5 9M32 11L31 14.5" stroke="#B70000" stroke-width="2" stroke-linecap="round" stroke-linejoin="round"/>
<defs>
<clipPath id="clip0_213_1966">
<rect width="18" height="18" fill="white" transform="translate(9 31)"/>
</clipPath>
</defs>
</svg>
