<svg width="56" height="56" viewBox="0 0 56 56" fill="none" xmlns="http://www.w3.org/2000/svg">
<path d="M40.7545 35.8896C42.0772 36.654 43.5937 37.0174 45.1192 36.9355C46.6447 36.8537 48.1135 36.33 49.3468 35.4283L45.4264 33.1649L44.2612 28.8163L48.6098 27.6511L52.5302 29.9145C52.6956 28.3952 52.4155 26.8606 51.7242 25.4977C51.0328 24.1347 49.96 23.0023 48.6364 22.2383C47.3128 21.4743 45.7956 21.1118 44.2696 21.1949C42.7436 21.2779 41.2747 21.803 40.0419 22.7062L22.3711 12.4551C22.5369 10.9358 22.2572 9.40117 21.5661 8.03808C20.8751 6.67499 19.8025 5.54231 18.479 4.77803C17.1556 4.01376 15.6385 3.65088 14.1125 3.73362C12.5864 3.81636 11.1174 4.34114 9.8844 5.24402L13.8042 7.50527L14.9694 11.8539L10.6207 13.0191L6.7004 10.7557C6.53491 12.2746 6.81466 13.8089 7.50558 15.1717C8.1965 16.5345 9.26878 17.667 10.5918 18.4312C11.9149 19.1955 13.4316 19.5585 14.9573 19.4762C16.483 19.3938 17.9518 18.8696 19.1849 17.9673L36.859 28.2222C36.6956 29.7403 36.9767 31.2731 37.6683 32.6343C38.3599 33.9955 39.4321 35.1265 40.7545 35.8896Z" stroke="#B70000" stroke-width="2" stroke-linecap="round" stroke-linejoin="round"/>
<path d="M19.8 26.7766C19.8 25.7952 19.0048 25 18.0234 25H15.978C14.9952 25 14.2 25.7952 14.2 26.7766C14.2 27.5858 13.6456 28.2802 12.891 28.577C12.7715 28.6255 12.6535 28.675 12.5368 28.7254C11.7934 29.0474 10.91 28.9494 10.336 28.3768C10.0027 28.0442 9.55105 27.8575 9.0802 27.8575C8.60935 27.8575 8.15772 28.0442 7.8244 28.3768L6.3768 29.8244C6.04424 30.1577 5.85747 30.6093 5.85747 31.0802C5.85747 31.5511 6.04424 32.0027 6.3768 32.336C6.9508 32.91 7.0488 33.792 6.724 34.5368C6.67298 34.654 6.62397 34.7721 6.577 34.891C6.2802 35.6456 5.5858 36.2 4.7766 36.2C3.7952 36.2 3 36.9952 3 37.9766V40.0234C3 41.0048 3.7952 41.8 4.7766 41.8C5.5858 41.8 6.2802 42.3544 6.577 43.109C6.62553 43.2285 6.67453 43.3465 6.724 43.4632C7.0474 44.2066 6.9494 45.09 6.3768 45.664C6.04424 45.9973 5.85747 46.4489 5.85747 46.9198C5.85747 47.3907 6.04424 47.8423 6.3768 48.1756L7.8244 49.6232C8.15772 49.9558 8.60935 50.1425 9.0802 50.1425C9.55105 50.1425 10.0027 49.9558 10.336 49.6232C10.91 49.0492 11.792 48.9512 12.5368 49.2746C12.6535 49.3259 12.7715 49.3754 12.891 49.423C13.6456 49.7198 14.2 50.4142 14.2 51.2234C14.2 52.2048 14.9952 53 15.9766 53H18.0234C19.0048 53 19.8 52.2048 19.8 51.2234C19.8 50.4142 20.3544 49.7198 21.109 49.4216C21.2285 49.3749 21.3465 49.3264 21.4632 49.276C22.2066 48.9512 23.09 49.0506 23.6626 49.6232C23.996 49.9562 24.4479 50.1432 24.9191 50.1432C25.3903 50.1432 25.8422 49.9562 26.1756 49.6232L27.6232 48.1756C27.9558 47.8423 28.1425 47.3907 28.1425 46.9198C28.1425 46.4489 27.9558 45.9973 27.6232 45.664C27.0492 45.09 26.9512 44.208 27.2746 43.4632C27.3259 43.3465 27.3754 43.2285 27.423 43.109C27.7198 42.3544 28.4142 41.8 29.2234 41.8C30.2048 41.8 31 41.0048 31 40.0234V37.978C31 36.9966 30.2048 36.2014 29.2234 36.2014C28.4142 36.2014 27.7198 35.647 27.4216 34.8924C27.3746 34.7735 27.3256 34.6554 27.2746 34.5382C26.9526 33.7948 27.0506 32.9114 27.6232 32.3374C27.9558 32.0041 28.1425 31.5525 28.1425 31.0816C28.1425 30.6107 27.9558 30.1591 27.6232 29.8258L26.1756 28.3782C25.8423 28.0456 25.3907 27.8589 24.9198 27.8589C24.4489 27.8589 23.9973 28.0456 23.664 28.3782C23.09 28.9522 22.208 29.0502 21.4632 28.7268C21.346 28.6753 21.2279 28.6258 21.109 28.5784C20.3544 28.2802 19.8 27.5844 19.8 26.7766Z" stroke="#B70000" stroke-width="2"/>
<path d="M25 39C25 41.1217 24.1571 43.1566 22.6569 44.6569C21.1566 46.1571 19.1217 47 17 47C14.8783 47 12.8434 46.1571 11.3431 44.6569C9.84285 43.1566 9 41.1217 9 39C9 36.8783 9.84285 34.8434 11.3431 33.3431C12.8434 31.8429 14.8783 31 17 31C19.1217 31 21.1566 31.8429 22.6569 33.3431C24.1571 34.8434 25 36.8783 25 39Z" stroke="#B70000" stroke-width="2"/>
<path d="M17 31V33.5M17 47V44.5M9 39H11.5M25 39H22.5" stroke="#B70000" stroke-width="2" stroke-linecap="round" stroke-linejoin="round"/>
<path d="M17 37V40L19 39.5" stroke="#B70000" stroke-width="2" stroke-linecap="round" stroke-linejoin="round"/>
</svg>
