<svg width="56" height="56" viewBox="0 0 56 56" fill="none" xmlns="http://www.w3.org/2000/svg">
<path d="M5 14.5L22 10L39 14.5V48H5L5 14.5Z" stroke="#B70000" stroke-width="2"/>
<rect x="39" y="18" width="11" height="30" stroke="#B70000" stroke-width="2"/>
<rect x="43" y="23" width="3" height="5" stroke="#B70000" stroke-width="2"/>
<rect x="43" y="32" width="3" height="5" stroke="#B70000" stroke-width="2"/>
<rect x="43" y="41" width="3" height="7" stroke="#B70000" stroke-width="2"/>
<path d="M9 33.9613C16.5 30.0129 27 30.0129 34 33.9613V48H9V33.9613Z" stroke="#B70000" stroke-width="2"/>
<g clip-path="url(#clip0_213_1997)">
<path d="M22 26.8334C24.8992 26.8334 27.25 25.3272 27.25 22.75V22.6987C27.25 21.4632 26.4695 20.475 25.2813 19.8334C24.1443 19.2197 23.4723 18.0892 23.6403 16.9167L23.9688 15.1667L22.7519 15.6304C20.5603 16.4646 18.7351 17.9124 17.5521 19.7523C17.0321 20.5516 16.7536 21.4838 16.75 22.4374V22.75C16.75 23.6612 17.044 24.4388 17.5521 25.0629" stroke="#B70000" stroke-width="2" stroke-linecap="round" stroke-linejoin="round"/>
<path d="M22 26.8334C22.9666 26.8334 23.75 25.9974 23.75 24.9667C23.75 24.15 23.1573 23.4961 22.6358 22.897L22 22.1667L21.3642 22.897C20.8427 23.4967 20.25 24.15 20.25 24.9667C20.25 25.9974 21.0334 26.8334 22 26.8334Z" stroke="#B70000" stroke-width="2" stroke-linecap="round" stroke-linejoin="round"/>
</g>
<rect x="13" y="35" width="17" height="2" rx="1" fill="#B70000"/>
<rect x="13" y="39" width="17" height="2" rx="1" fill="#B70000"/>
<rect x="13" y="43" width="17" height="2" rx="1" fill="#B70000"/>
<defs>
<clipPath id="clip0_213_1997">
<rect width="14" height="14" fill="white" transform="matrix(-1 0 0 1 29 14)"/>
</clipPath>
</defs>
</svg>
