<svg width="56" height="56" viewBox="0 0 56 56" fill="none" xmlns="http://www.w3.org/2000/svg">
<path d="M22.6197 24.838C22.6833 23.847 21.9318 22.9924 20.9408 22.9288L18.8753 22.7962C17.8828 22.7325 17.0283 23.484 16.9647 24.475C16.9122 25.2922 16.3074 25.9574 15.5261 26.2082C15.4023 26.2495 15.2799 26.2918 15.1588 26.3351C14.3872 26.6121 13.5015 26.4559 12.959 25.8405C12.6439 25.483 12.2 25.2652 11.7245 25.2346C11.249 25.2041 10.7808 25.3634 10.4227 25.6777L8.86704 27.0457C8.5096 27.3607 8.29172 27.8046 8.2612 28.2801C8.23068 28.7556 8.39001 29.2238 8.70423 29.5819C9.24666 30.1988 9.28845 31.0958 8.91218 31.8269C8.85307 31.9419 8.79592 32.058 8.74078 32.175C8.39215 32.9178 7.65499 33.4326 6.83784 33.3802C5.84679 33.3166 4.99224 34.068 4.92862 35.0591L4.79594 37.126C4.73233 38.117 5.4838 38.9716 6.47484 39.0352C7.29199 39.0877 7.95728 39.6925 8.20808 40.4738C8.24935 40.5976 8.29118 40.72 8.33357 40.841C8.61196 41.6126 8.45573 42.4984 7.8403 43.0409C7.48286 43.3559 7.26498 43.7999 7.23446 44.2754C7.20394 44.7509 7.36327 45.219 7.67749 45.5772L9.04548 47.1328C9.36052 47.4903 9.80448 47.7082 10.28 47.7387C10.7554 47.7692 11.2236 47.6099 11.5818 47.2956C12.1986 46.7532 13.0956 46.7114 13.8268 47.0863C13.9413 47.1457 14.0573 47.2033 14.1748 47.2591C14.9176 47.6077 15.4325 48.3449 15.38 49.162C15.3164 50.1531 16.0679 51.0076 17.0589 51.0713L19.1258 51.2039C20.1169 51.2675 20.9714 50.5161 21.035 49.525C21.0875 48.7079 21.6923 48.0426 22.4737 47.7904C22.5974 47.751 22.7197 47.7096 22.8408 47.6663C23.6126 47.3865 24.4982 47.5441 25.0393 48.1595C25.3544 48.5174 25.7986 48.7355 26.2745 48.7661C26.7503 48.7966 27.2188 48.637 27.577 48.3224L29.1327 46.9544C29.4901 46.6393 29.708 46.1954 29.7385 45.7199C29.769 45.2444 29.6097 44.7763 29.2955 44.4181C28.753 43.8013 28.7113 42.9042 29.0861 42.1731C29.1455 42.0586 29.2031 41.9426 29.2589 41.825C29.6076 41.0822 30.3447 40.5674 31.1619 40.6199C32.1529 40.6835 33.0075 39.932 33.0711 38.941L33.2037 36.8755C33.2673 35.8844 32.5158 35.0299 31.5248 34.9663C30.7076 34.9138 30.0423 34.3089 29.7901 33.5276C29.7504 33.4045 29.7086 33.2821 29.6646 33.1604C29.3877 32.3888 29.5439 31.5031 30.1593 30.9606C30.5168 30.6455 30.7346 30.2016 30.7652 29.7261C30.7957 29.2506 30.6363 28.7824 30.3221 28.4243L28.9541 26.8686C28.6391 26.5112 28.1951 26.2933 27.7197 26.2628C27.2442 26.2323 26.776 26.3916 26.4179 26.7058C25.801 27.2482 24.904 27.29 24.1728 26.9152C24.0578 26.8556 23.9418 26.798 23.8248 26.7424C23.0821 26.3923 22.5673 25.6537 22.6197 24.838Z" stroke="#B70000" stroke-width="2"/>
<path d="M24.6668 37C24.6668 38.5029 24.0698 39.9442 23.0071 41.0069C21.9444 42.0697 20.5031 42.6667 19.0002 42.6667C17.4973 42.6667 16.0559 42.0697 14.9932 41.0069C13.9305 39.9442 13.3335 38.5029 13.3335 37C13.3335 35.4971 13.9305 34.0558 14.9932 32.9931C16.0559 31.9304 17.4973 31.3333 19.0002 31.3333C20.5031 31.3333 21.9444 31.9304 23.0071 32.9931C24.0698 34.0558 24.6668 35.4971 24.6668 37Z" stroke="#B70000" stroke-width="2"/>
<path d="M14 26.5V7C14 5.34315 15.3431 4 17 4H50C51.6569 4 53 5.34315 53 7V40C53 41.6569 51.6569 43 50 43H29.5" stroke="#B70000" stroke-width="2"/>
<path d="M38 4V16H37.8027L36.5547 15.168L36 14.7979L35.4453 15.168L34.5 15.7979L33.5547 15.168L33 14.7979L32.4453 15.168L31.5 15.7979L30.5547 15.168L30 14.7979L29.4453 15.168L28.1973 16H28V4H38Z" stroke="#B70000" stroke-width="2"/>
<rect x="39" y="34" width="2" height="6" fill="#B70000"/>
<rect x="42" y="34" width="2" height="6" fill="#B70000"/>
<rect x="45" y="34" width="2" height="6" fill="#B70000"/>
<rect x="48" y="34" width="2" height="6" fill="#B70000"/>
</svg>
