<svg width="56" height="56" viewBox="0 0 56 56" fill="none" xmlns="http://www.w3.org/2000/svg">
<path d="M11.75 36L15.125 39.375L21.5 33" stroke="#B70000" stroke-width="2" stroke-linecap="round" stroke-linejoin="round"/>
<path d="M4.74999 48.25L10.1787 42.8213M10.1787 42.8213C9.25013 41.8927 8.51351 40.7902 8.01095 39.5769C7.50839 38.3637 7.24973 37.0633 7.24973 35.75C7.24973 34.4368 7.50839 33.1364 8.01095 31.9231C8.51351 30.7098 9.25013 29.6074 10.1787 28.6788C11.1073 27.7502 12.2098 27.0135 13.4231 26.511C14.6363 26.0084 15.9367 25.7498 17.25 25.7498C18.5632 25.7498 19.8636 26.0084 21.0769 26.511C22.2902 27.0135 23.3926 27.7502 24.3212 28.6788C26.1966 30.5542 27.2502 33.0978 27.2502 35.75C27.2502 38.4022 26.1966 40.9459 24.3212 42.8213C22.4458 44.6967 19.9022 45.7503 17.25 45.7503C14.5978 45.7503 12.0541 44.6967 10.1787 42.8213Z" stroke="#B70000" stroke-width="2" stroke-linecap="round" stroke-linejoin="round"/>
<path d="M44.768 15.6996C44.8167 14.9418 44.242 14.2883 43.4842 14.2397L41.9047 14.1383C41.1457 14.0896 40.4923 14.6642 40.4436 15.4221C40.4035 16.0469 39.941 16.5557 39.3435 16.7475C39.2489 16.779 39.1552 16.8114 39.0627 16.8445C38.4726 17.0563 37.7953 16.9369 37.3804 16.4662C37.1395 16.1929 36.8 16.0263 36.4364 16.0029C36.0728 15.9796 35.7148 16.1014 35.4409 16.3417L34.2513 17.3878C33.978 17.6288 33.8114 17.9683 33.788 18.3319C33.7647 18.6955 33.8865 19.0535 34.1268 19.3274C34.5416 19.7991 34.5736 20.485 34.2858 21.0441C34.2406 21.1321 34.1969 21.2208 34.1548 21.3103C33.8882 21.8783 33.3244 22.272 32.6996 22.2319C31.9417 22.1832 31.2882 22.7579 31.2396 23.5158L31.1381 25.0963C31.0895 25.8542 31.6641 26.5077 32.422 26.5563C33.0469 26.5964 33.5556 27.059 33.7474 27.6564C33.779 27.7511 33.8109 27.8447 33.8434 27.9372C34.0562 28.5273 33.9368 29.2046 33.4662 29.6195C33.1928 29.8604 33.0262 30.1999 33.0029 30.5635C32.9795 30.9271 33.1014 31.2851 33.3417 31.559L34.3878 32.7486C34.6287 33.022 34.9682 33.1886 35.3318 33.2119C35.6954 33.2353 36.0534 33.1134 36.3273 32.8731C36.799 32.4583 37.4849 32.4264 38.0441 32.713C38.1316 32.7585 38.2203 32.8025 38.3102 32.8452C38.8782 33.1118 39.2719 33.6755 39.2318 34.3004C39.1832 35.0582 39.7578 35.7117 40.5157 35.7604L42.0963 35.8618C42.8541 35.9105 43.5076 35.3358 43.5562 34.578C43.5964 33.9531 44.0589 33.4443 44.6564 33.2515C44.751 33.2213 44.8445 33.1897 44.9371 33.1566C45.5273 32.9426 46.2046 33.0632 46.6183 33.5337C46.8593 33.8074 47.199 33.9742 47.5629 33.9976C47.9267 34.0209 48.285 33.8989 48.5589 33.6583L49.7486 32.6122C50.0219 32.3713 50.1885 32.0318 50.2118 31.6682C50.2352 31.3046 50.1133 30.9466 49.8731 30.6727C49.4582 30.201 49.4263 29.515 49.7129 28.9559C49.7584 28.8683 49.8024 28.7796 49.8451 28.6897C50.1117 28.1217 50.6754 27.728 51.3003 27.7681C52.0582 27.8168 52.7116 27.2421 52.7603 26.4843L52.8617 24.9048C52.9103 24.1469 52.3357 23.4934 51.5778 23.4448C50.9529 23.4047 50.4442 22.9421 50.2513 22.3446C50.2209 22.2505 50.1889 22.1569 50.1554 22.0638C49.9435 21.4738 50.063 20.7965 50.5336 20.3816C50.807 20.1407 50.9736 19.8012 50.9969 19.4376C51.0203 19.074 50.8984 18.716 50.6581 18.4421L49.612 17.2525C49.3711 16.9791 49.0316 16.8125 48.668 16.7892C48.3044 16.7658 47.9464 16.8877 47.6725 17.128C47.2008 17.5428 46.5149 17.5747 45.9557 17.2881C45.8678 17.2425 45.779 17.1984 45.6896 17.1559C45.1216 16.8882 44.728 16.3234 44.768 15.6996Z" stroke="#B70000" stroke-width="2"/>
<path d="M46.3334 25C46.3334 26.1493 45.8769 27.2515 45.0642 28.0641C44.2516 28.8768 43.1494 29.3333 42.0001 29.3333C40.8508 29.3333 39.7486 28.8768 38.936 28.0641C38.1233 27.2515 37.6667 26.1493 37.6667 25C37.6667 23.8507 38.1233 22.7485 38.936 21.9359C39.7486 21.1232 40.8508 20.6667 42.0001 20.6667C43.1494 20.6667 44.2516 21.1232 45.0642 21.9359C45.8769 22.7485 46.3334 23.8507 46.3334 25Z" stroke="#B70000" stroke-width="2"/>
<g clip-path="url(#clip0_213_1844)">
<path d="M23.1292 5.84587C23.1667 5.26291 22.7246 4.76023 22.1417 4.72281L20.9267 4.64481C20.3429 4.60734 19.8402 5.04938 19.8028 5.63235C19.7719 6.11302 19.4161 6.50437 18.9565 6.6519C18.8837 6.67617 18.8117 6.70106 18.7405 6.72655C18.2866 6.88947 17.7656 6.79758 17.4465 6.43556C17.2612 6.2253 17 6.09714 16.7203 6.07918C16.4406 6.06123 16.1652 6.15495 15.9545 6.33979L15.0394 7.14449C14.8292 7.32981 14.701 7.59096 14.6831 7.87065C14.6651 8.15035 14.7588 8.42574 14.9437 8.63642C15.2628 8.99927 15.2873 9.52693 15.066 9.95697C15.0312 10.0247 14.9976 10.0929 14.9652 10.1618C14.7601 10.5987 14.3265 10.9015 13.8458 10.8707C13.2628 10.8333 12.7602 11.2753 12.7227 11.8583L12.6447 13.0741C12.6073 13.6571 13.0493 14.1597 13.6323 14.1972C14.113 14.228 14.5043 14.5838 14.6518 15.0434C14.6761 15.1162 14.7007 15.1882 14.7256 15.2594C14.8894 15.7133 14.7975 16.2343 14.4355 16.5535C14.2252 16.7388 14.0971 16.9999 14.0791 17.2796C14.0612 17.5593 14.1549 17.8347 14.3397 18.0454L15.1444 18.9605C15.3297 19.1707 15.5909 19.2989 15.8706 19.3169C16.1503 19.3348 16.4257 19.2411 16.6363 19.0562C16.9992 18.7372 17.5269 18.7126 17.9569 18.9331C18.0243 18.968 18.0925 19.0019 18.1617 19.0347C18.5986 19.2398 18.9015 19.6734 18.8706 20.1541C18.8332 20.7371 19.2752 21.2398 19.8582 21.2772L21.074 21.3552C21.657 21.3927 22.1597 20.9506 22.1971 20.3677C22.2279 19.887 22.5837 19.4956 23.0434 19.3473C23.1161 19.3241 23.1881 19.2998 23.2593 19.2743C23.7133 19.1097 24.2343 19.2024 24.5526 19.5644C24.7379 19.7749 24.9992 19.9032 25.2791 19.9212C25.559 19.9392 25.8346 19.8453 26.0453 19.6602L26.9604 18.8555C27.1707 18.6702 27.2988 18.409 27.3168 18.1293C27.3347 17.8497 27.241 17.5743 27.0562 17.3636C26.7371 17.0007 26.7125 16.4731 26.933 16.043C26.968 15.9756 27.0018 15.9074 27.0347 15.8382C27.2398 15.4013 27.6734 15.0985 28.1541 15.1293C28.737 15.1667 29.2397 14.7247 29.2771 14.1417L29.3551 12.9267C29.3925 12.3438 28.9505 11.8411 28.3675 11.8037C27.8869 11.7728 27.4955 11.417 27.3471 10.9574C27.3238 10.885 27.2992 10.813 27.2733 10.7414C27.1104 10.2875 27.2023 9.76651 27.5643 9.44738C27.7746 9.26206 27.9027 9.00091 27.9207 8.72121C27.9386 8.44152 27.8449 8.16612 27.6601 7.95545L26.8554 7.04035C26.6701 6.8301 26.4089 6.70193 26.1292 6.68398C25.8495 6.66602 25.5741 6.75975 25.3635 6.94458C25.0006 7.26366 24.4729 7.28825 24.0429 7.06774C23.9752 7.03269 23.9069 6.9988 23.8381 6.96608C23.4012 6.76018 23.0984 6.32572 23.1292 5.84587Z" stroke="#B70000" stroke-width="2"/>
<path d="M24.3334 13C24.3334 13.8841 23.9822 14.7319 23.3571 15.357C22.732 15.9822 21.8841 16.3334 21.0001 16.3334C20.116 16.3334 19.2682 15.9822 18.6431 15.357C18.0179 14.7319 17.6667 13.8841 17.6667 13C17.6667 12.116 18.0179 11.2681 18.6431 10.643C19.2682 10.0179 20.116 9.66669 21.0001 9.66669C21.8841 9.66669 22.732 10.0179 23.3571 10.643C23.9822 11.2681 24.3334 12.116 24.3334 13Z" stroke="#B70000" stroke-width="2"/>
</g>
<defs>
<clipPath id="clip0_213_1844">
<rect width="20" height="20" fill="white" transform="translate(11 3)"/>
</clipPath>
</defs>
</svg>
