<svg width="56" height="56" viewBox="0 0 56 56" fill="none" xmlns="http://www.w3.org/2000/svg">
<path d="M32.6667 7.62769C32.6667 5.99202 31.3414 4.66669 29.7057 4.66669H26.2968C24.6588 4.66669 23.3334 5.99202 23.3334 7.62769C23.3334 8.97635 22.4094 10.1337 21.1517 10.6284C20.9526 10.7092 20.7559 10.7917 20.5614 10.8757C19.3224 11.4124 17.8501 11.249 16.8934 10.2947C16.3379 9.74042 15.5852 9.42914 14.8004 9.42914C14.0157 9.42914 13.263 9.74042 12.7074 10.2947L10.2947 12.7074C9.74048 13.2629 9.4292 14.0156 9.4292 14.8004C9.4292 15.5851 9.74048 16.3378 10.2947 16.8934C11.2514 17.85 11.4147 19.32 10.8734 20.5614C10.7884 20.7567 10.7067 20.9535 10.6284 21.1517C10.1337 22.4094 8.97642 23.3334 7.62775 23.3334C5.99208 23.3334 4.66675 24.6587 4.66675 26.2944V29.7057C4.66675 31.3414 5.99208 32.6667 7.62775 32.6667C8.97642 32.6667 10.1337 33.5907 10.6284 34.8484C10.7093 35.0475 10.791 35.2442 10.8734 35.4387C11.4124 36.6777 11.2491 38.15 10.2947 39.1067C9.74048 39.6622 9.4292 40.4149 9.4292 41.1997C9.4292 41.9844 9.74048 42.7372 10.2947 43.2927L12.7074 45.7054C13.263 46.2596 14.0157 46.5709 14.8004 46.5709C15.5852 46.5709 16.3379 46.2596 16.8934 45.7054C17.8501 44.7487 19.3201 44.5854 20.5614 45.1244C20.7559 45.2099 20.9526 45.2924 21.1517 45.3717C22.4094 45.8664 23.3334 47.0237 23.3334 48.3724C23.3334 50.008 24.6587 51.3334 26.2944 51.3334H29.7057C31.3414 51.3334 32.6667 50.008 32.6667 48.3724C32.6667 47.0237 33.5908 45.8664 34.8484 45.3694C35.0475 45.2916 35.2443 45.2107 35.4387 45.1267C36.6777 44.5854 38.1501 44.751 39.1044 45.7054C39.6601 46.2603 40.4133 46.5721 41.1986 46.5721C41.9839 46.5721 42.7371 46.2603 43.2928 45.7054L45.7054 43.2927C46.2597 42.7372 46.571 41.9844 46.571 41.1997C46.571 40.4149 46.2597 39.6622 45.7054 39.1067C44.7487 38.15 44.5854 36.68 45.1244 35.4387C45.21 35.2442 45.2924 35.0475 45.3718 34.8484C45.8664 33.5907 47.0238 32.6667 48.3724 32.6667C50.0081 32.6667 51.3334 31.3414 51.3334 29.7057V26.2967C51.3334 24.661 50.0081 23.3357 48.3724 23.3357C47.0238 23.3357 45.8664 22.4117 45.3694 21.154C45.2911 20.9559 45.2094 20.7591 45.1244 20.5637C44.5878 19.3247 44.7511 17.8524 45.7054 16.8957C46.2597 16.3402 46.571 15.5874 46.571 14.8027C46.571 14.0179 46.2597 13.2652 45.7054 12.7097L43.2928 10.297C42.7372 9.74275 41.9845 9.43147 41.1997 9.43147C40.415 9.43147 39.6623 9.74275 39.1068 10.297C38.1501 11.2537 36.6801 11.417 35.4387 10.878C35.2434 10.7922 35.0466 10.7098 34.8484 10.6307C33.5908 10.1337 32.6667 8.97402 32.6667 7.62769Z" stroke="#B70000" stroke-width="2"/>
<path d="M43 28C43 31.9782 41.4196 35.7936 38.6066 38.6066C35.7936 41.4196 31.9782 43 28 43C24.0218 43 20.2064 41.4196 17.3934 38.6066C14.5804 35.7936 13 31.9782 13 28C13 24.0218 14.5804 20.2064 17.3934 17.3934C20.2064 14.5804 24.0218 13 28 13C31.9782 13 35.7936 14.5804 38.6066 17.3934C41.4196 20.2064 43 24.0218 43 28Z" stroke="#B70000" stroke-width="2"/>
<path d="M26.9999 27L21.9999 22M20.9999 23.5L23.4999 21L20.4999 19.5L19.4999 20.5L20.9999 23.5ZM35.9749 24.975C36.455 24.4953 36.7853 23.8864 36.9256 23.2224C37.0659 22.5584 37.01 21.8679 36.7649 21.235L35.3429 22.657H33.3429V20.657L34.7649 19.235C34.132 18.9894 33.4413 18.9331 32.777 19.073C32.1127 19.213 31.5034 19.5431 31.0234 20.0233C30.5433 20.5034 30.2133 21.1127 30.0735 21.7771C29.9337 22.4415 29.9901 23.1322 30.2359 23.765L23.7659 30.236C23.1331 29.9902 22.4424 29.9338 21.778 30.0736C21.1137 30.2134 20.5043 30.5434 20.0242 31.0234C19.5441 31.5035 19.2139 32.1127 19.074 32.7771C18.934 33.4414 18.9903 34.1321 19.2359 34.765L20.6569 33.343H22.6569V35.343L21.2349 36.765C21.8677 37.0107 22.5582 37.067 23.2224 36.9273C23.8867 36.7875 24.4959 36.4576 24.976 35.9777C25.456 35.4978 25.7862 34.8888 25.9263 34.2246C26.0664 33.5604 26.0103 32.8699 25.7649 32.237L32.2369 25.765C32.8695 26.0097 33.5596 26.0653 34.2232 25.925C34.8869 25.7848 35.4954 25.4547 35.9749 24.975Z" stroke="#B70000" stroke-width="2" stroke-linecap="round" stroke-linejoin="round"/>
<path d="M27.7969 30.5L33.4009 36.104C33.5263 36.2296 33.6752 36.3293 33.8392 36.3973C34.0031 36.4653 34.1789 36.5003 34.3564 36.5003C34.5339 36.5003 34.7096 36.4653 34.8736 36.3973C35.0375 36.3293 35.1865 36.2296 35.3119 36.104L36.1039 35.312C36.2295 35.1866 36.3292 35.0377 36.3972 34.8737C36.4652 34.7098 36.5002 34.534 36.5002 34.3565C36.5002 34.179 36.4652 34.0032 36.3972 33.8393C36.3292 33.6753 36.2295 33.5264 36.1039 33.401L30.4999 27.797" stroke="#B70000" stroke-width="2" stroke-linecap="round" stroke-linejoin="round"/>
</svg>
