<svg width="63" height="57" viewBox="0 0 63 57" fill="none" xmlns="http://www.w3.org/2000/svg">
<path d="M38.9967 48.2861C38.1944 49.0879 37.176 49.6395 36.0655 49.8738C34.9549 50.108 33.8001 50.0148 32.7416 49.6055L35.1199 47.2306L35.1199 43.8904L31.7749 43.8904L29.3966 46.2653C28.9858 45.2082 28.8917 44.0547 29.1257 42.9452C29.3598 41.8357 29.912 40.8181 30.715 40.0165C31.518 39.2148 32.5371 38.6636 33.6482 38.4301C34.7594 38.1966 35.9145 38.2909 36.973 38.7014L47.6835 27.9617C47.2724 26.9048 47.178 25.7513 47.4118 24.6417C47.6457 23.5322 48.1976 22.5145 49.0004 21.7126C49.8032 20.9108 50.8223 20.3594 51.9333 20.1256C53.0444 19.8919 54.1996 19.9859 55.2582 20.3962L52.8799 22.7694L52.8799 26.1096L56.2248 26.1096L58.6031 23.7347C59.014 24.7915 59.1082 25.9447 58.8744 27.054C58.6407 28.1633 58.0889 29.1808 57.2863 29.9826C56.4838 30.7843 55.4651 31.3358 54.3543 31.5697C53.2435 31.8037 52.0886 31.71 51.0301 31.3002L40.318 42.0433C40.7272 43.0998 40.8202 44.2523 40.5856 45.3606C40.351 46.4689 39.799 47.4853 38.9967 48.2861Z" stroke="#B70000" stroke-width="2" stroke-linecap="round" stroke-linejoin="round"/>
<rect width="10" height="4" rx="1" transform="matrix(-1 0 0 1 43 17)" stroke="#B70000" stroke-width="2"/>
<path d="M35 38.5V21H41V34.5" stroke="#B70000" stroke-width="2"/>
<rect width="10" height="4" rx="1" transform="matrix(4.37114e-08 -1 -1 -4.37114e-08 30 14)" stroke="#B70000" stroke-width="2"/>
<rect width="6" height="11" transform="matrix(4.37114e-08 -1 -1 -4.37114e-08 26 12)" stroke="#B70000" stroke-width="2"/>
<rect width="10" height="4" rx="1" transform="matrix(4.37114e-08 -1 -1 -4.37114e-08 15 14)" stroke="#B70000" stroke-width="2"/>
<path d="M30 5C31.5759 5 33.1363 5.31039 34.5922 5.91345C36.0481 6.5165 37.371 7.40042 38.4853 8.51472C39.5996 9.62902 40.4835 10.9519 41.0866 12.4078C41.6896 13.8637 42 15.4241 42 17" stroke="#B70000" stroke-width="2"/>
<path d="M30 12C30.6566 12 31.3068 12.1293 31.9134 12.3806C32.52 12.6319 33.0712 13.0002 33.5355 13.4645C33.9998 13.9288 34.3681 14.48 34.6194 15.0866C34.8707 15.6932 35 16.3434 35 17" stroke="#B70000" stroke-width="2"/>
<g clip-path="url(#clip0_213_1874)">
<path d="M22.3081 33.4858C22.176 33.4474 22.0393 33.4275 21.9018 33.4266L20.3521 33.4373C20.1904 33.4358 20.0299 33.4645 19.8787 33.5219C19.6414 33.6128 19.4371 33.7734 19.2928 33.9826C19.1485 34.1918 19.0708 34.4397 19.07 34.6939C19.0658 35.2307 19.0564 36.2116 19.0458 37.9876C19.0275 41.3861 18.688 47.3908 18.4617 50.0333C18.4499 50.1661 18.4658 50.2998 18.5084 50.4261C18.551 50.5524 18.6193 50.6684 18.7091 50.7669C18.7989 50.8654 18.9081 50.9442 19.0299 50.9983C19.1517 51.0523 19.2835 51.0805 19.4167 51.081L22.753 51.0993C22.8869 51.0996 23.0193 51.0721 23.142 51.0186C23.2647 50.9652 23.375 50.887 23.466 50.7889C23.557 50.6907 23.6267 50.5749 23.6708 50.4485C23.7149 50.3221 23.7323 50.188 23.7221 50.0546C23.5038 47.3487 23.1818 41.3214 23.2018 37.9638C23.2159 36.2431 23.212 35.2669 23.2167 34.7211C23.2144 34.4458 23.1253 34.1782 22.9622 33.9564C22.7991 33.7347 22.5702 33.57 22.3081 33.4858ZM28.902 22.9783L25.9962 22.9915C25.9517 22.9915 25.9076 23.0006 25.8667 23.0182C25.8258 23.0358 25.789 23.0616 25.7584 23.094C25.7265 23.1249 25.701 23.1618 25.6834 23.2026C25.6658 23.2434 25.6564 23.2873 25.6559 23.3318C25.6562 23.4371 25.6322 23.541 25.5859 23.6356C25.5396 23.7302 25.4721 23.8128 25.3887 23.8771C25.1773 24.0469 24.9153 24.1906 24.6575 24.1949C24.0679 24.2008 23.8378 23.2824 23.2082 23.1769C22.5067 23.074 21.7987 23.0223 21.0898 23.0221C20.4917 23.0246 18.1852 23.0791 15.3862 24.2566C14.4918 24.6311 13.6791 25.1768 12.9938 25.8628C11.8729 26.9837 11.5113 28.3458 11.4841 28.9473C11.4603 29.4237 11.5594 30.0435 11.5594 30.0435C11.6549 29.8384 11.763 29.6393 11.8831 29.4476C12.1386 29.0527 12.4509 28.6976 12.81 28.3939C13.5268 27.7869 14.6349 27.2998 15.3989 27.2079C16.6415 27.0714 17.6777 27.5146 18.6787 28.4228C19.4227 29.0987 19.6371 30.6769 19.7209 32.0548C19.7282 32.1759 19.7819 32.2896 19.8709 32.3723C19.9598 32.4549 20.0772 32.5001 20.1986 32.4984L22.0052 32.498C22.1303 32.4972 22.2502 32.4478 22.3394 32.3601C22.4287 32.2724 22.4803 32.1535 22.4833 32.0284C22.5012 30.8611 22.5948 29.4948 22.7539 28.8261C22.913 28.1574 23.175 27.7515 23.3179 27.5737C23.6025 27.2281 23.988 26.98 24.4205 26.8642C24.4962 26.8433 24.5744 26.8332 24.6528 26.8344C25.2067 26.8387 25.6461 27.3113 25.6414 27.8656L25.6367 28.031C25.6364 28.0749 25.6448 28.1184 25.6614 28.1591C25.678 28.1997 25.7026 28.2366 25.7336 28.2676C25.7647 28.2987 25.8016 28.3232 25.8422 28.3399C25.8828 28.3565 25.9263 28.3649 25.9702 28.3645L28.8761 28.3513C28.9205 28.351 28.9644 28.3417 29.0052 28.324C29.046 28.3063 29.0828 28.2806 29.1134 28.2484C29.1777 28.1859 29.2147 28.1006 29.2164 28.011L29.2423 23.3186C29.2398 23.2291 29.2032 23.144 29.1399 23.0807C29.0766 23.0174 28.9915 22.9808 28.902 22.9783Z" stroke="#B70000" stroke-width="2" stroke-linecap="round" stroke-linejoin="round"/>
</g>
<defs>
<clipPath id="clip0_213_1874">
<rect width="30.8013" height="30.8013" fill="white" transform="translate(0 34.7798) rotate(-45)"/>
</clipPath>
</defs>
</svg>
