<svg width="56" height="56" viewBox="0 0 56 56" fill="none" xmlns="http://www.w3.org/2000/svg">
<rect x="19" y="46" width="24" height="4" stroke="#B70000" stroke-width="2"/>
<path d="M5 48C5 45.7909 6.79086 44 9 44H17L19 43V53L17 52H9C6.79086 52 5 50.2091 5 48V48Z" stroke="#B70000" stroke-width="2" stroke-linejoin="round"/>
<path d="M43 46L48.625 44.8333L52 46V49.8334L48.625 51L43 49.8334L43 46Z" stroke="#B70000" stroke-width="2" stroke-linejoin="round"/>
<path d="M30.1667 19.5414C30.1667 18.782 29.5514 18.1667 28.792 18.1667H27.2092C26.4487 18.1667 25.8334 18.782 25.8334 19.5414C25.8334 20.1676 25.4044 20.7049 24.8205 20.9346C24.7281 20.9722 24.6367 21.0104 24.5464 21.0494C23.9712 21.2986 23.2876 21.2228 22.8434 20.7797C22.5855 20.5223 22.236 20.3778 21.8717 20.3778C21.5073 20.3778 21.1578 20.5223 20.8999 20.7797L19.7797 21.8999C19.5224 22.1578 19.3779 22.5073 19.3779 22.8716C19.3779 23.236 19.5224 23.5854 19.7797 23.8434C20.2239 24.2875 20.2997 24.97 20.0484 25.5464C20.0089 25.6371 19.971 25.7284 19.9347 25.8204C19.705 26.4044 19.1677 26.8334 18.5415 26.8334C17.7821 26.8334 17.1667 27.4487 17.1667 28.2081V29.7919C17.1667 30.5514 17.7821 31.1667 18.5415 31.1667C19.1677 31.1667 19.705 31.5957 19.9347 32.1796C19.9722 32.272 20.0101 32.3634 20.0484 32.4537C20.2987 33.0289 20.2228 33.7125 19.7797 34.1567C19.5224 34.4146 19.3779 34.7641 19.3779 35.1284C19.3779 35.4928 19.5224 35.8423 19.7797 36.1002L20.8999 37.2204C21.1578 37.4777 21.5073 37.6222 21.8717 37.6222C22.236 37.6222 22.5855 37.4777 22.8434 37.2204C23.2876 36.7762 23.9701 36.7004 24.5464 36.9506C24.6367 36.9903 24.7281 37.0286 24.8205 37.0654C25.4044 37.2951 25.8334 37.8324 25.8334 38.4586C25.8334 39.218 26.4487 39.8334 27.2082 39.8334H28.792C29.5514 39.8334 30.1667 39.218 30.1667 38.4586C30.1667 37.8324 30.5957 37.2951 31.1797 37.0644C31.2721 37.0282 31.3635 36.9907 31.4537 36.9517C32.029 36.7004 32.7126 36.7773 33.1557 37.2204C33.4136 37.478 33.7633 37.6228 34.128 37.6228C34.4926 37.6228 34.8423 37.478 35.1002 37.2204L36.2204 36.1002C36.4778 35.8423 36.6223 35.4928 36.6223 35.1284C36.6223 34.7641 36.4778 34.4146 36.2204 34.1567C35.7762 33.7125 35.7004 33.03 35.9507 32.4537C35.9904 32.3634 36.0287 32.272 36.0655 32.1796C36.2952 31.5957 36.8325 31.1667 37.4587 31.1667C38.2181 31.1667 38.8334 30.5514 38.8334 29.7919V28.2092C38.8334 27.4498 38.2181 26.8344 37.4587 26.8344C36.8325 26.8344 36.2952 26.4054 36.0644 25.8215C36.0281 25.7295 35.9901 25.6381 35.9507 25.5474C35.7015 24.9722 35.7773 24.2886 36.2204 23.8444C36.4778 23.5865 36.6223 23.237 36.6223 22.8727C36.6223 22.5083 36.4778 22.1589 36.2204 21.9009L35.1002 20.7808C34.8423 20.5234 34.4928 20.3789 34.1285 20.3789C33.7641 20.3789 33.4147 20.5234 33.1567 20.7808C32.7126 21.2249 32.0301 21.3008 31.4537 21.0505C31.363 21.0107 31.2717 20.9724 31.1797 20.9357C30.5957 20.7049 30.1667 20.1665 30.1667 19.5414Z" stroke="#B70000" stroke-width="2"/>
<path d="M32.3334 29C32.3334 30.1493 31.8769 31.2515 31.0642 32.0642C30.2516 32.8768 29.1494 33.3334 28.0001 33.3334C26.8508 33.3334 25.7486 32.8768 24.936 32.0642C24.1233 31.2515 23.6667 30.1493 23.6667 29C23.6667 27.8507 24.1233 26.7485 24.936 25.9359C25.7486 25.1232 26.8508 24.6667 28.0001 24.6667C29.1494 24.6667 30.2516 25.1232 31.0642 25.9359C31.8769 26.7485 32.3334 27.8507 32.3334 29Z" stroke="#B70000" stroke-width="2"/>
<path d="M44.1364 16.838C45.5512 16.8386 46.9358 16.4279 48.1214 15.6558C49.307 14.8837 50.2426 13.7835 50.8143 12.4892L46.6218 12.4892L43.6735 9.54094L46.6218 6.59264L50.8143 6.59264C50.2434 5.29749 49.3082 4.19633 48.1225 3.42331C46.9369 2.6503 45.552 2.23881 44.1366 2.23896C42.7212 2.23912 41.3364 2.65092 40.151 3.4242C38.9655 4.19747 38.0305 5.29884 37.4599 6.59411L18.5399 6.55488C17.9693 5.2596 17.0343 4.15824 15.8489 3.38496C14.6634 2.61169 13.2786 2.19989 11.8632 2.19973C10.4478 2.19957 9.06297 2.61107 7.87732 3.38408C6.69168 4.15709 5.75645 5.25825 5.18558 6.5534L9.37659 6.55193L12.3249 9.50023L9.37659 12.4485L5.18411 12.4485C5.75475 13.7434 6.68961 14.8445 7.87483 15.6176C9.06006 16.3907 10.4445 16.8024 11.8596 16.8027C13.2746 16.8031 14.6593 16.3919 15.8448 15.6193C17.0304 14.8468 17.9658 13.7461 18.537 12.4515L37.4614 12.4922C38.0333 13.7854 38.9686 14.8847 40.1536 15.6562C41.3386 16.4277 42.7223 16.8383 44.1364 16.838Z" stroke="#B70000" stroke-width="2" stroke-linecap="round" stroke-linejoin="round"/>
<path d="M52 23H47V27.5H43" stroke="#B70000" stroke-width="2" stroke-linejoin="round"/>
<path d="M4 23H9V27.5H13" stroke="#B70000" stroke-width="2" stroke-linejoin="round"/>
<path d="M52 35.5H47V31H43" stroke="#B70000" stroke-width="2" stroke-linejoin="round"/>
<path d="M4 35.5H9V31H13" stroke="#B70000" stroke-width="2" stroke-linejoin="round"/>
</svg>
