<svg width="56" height="56" viewBox="0 0 56 56" fill="none" xmlns="http://www.w3.org/2000/svg">
<rect x="5" y="47" width="46" height="4" rx="1" stroke="#B70000" stroke-width="2"/>
<rect x="1" y="-1" width="18" height="39" rx="7" transform="matrix(1 0 0 -1 6 44)" stroke="#B70000" stroke-width="2"/>
<path d="M6 14H26" stroke="#B70000" stroke-width="2" stroke-linejoin="round"/>
<path d="M16 30.5001C15.6698 30.5001 15.3489 30.3912 15.0869 30.1902C14.8249 29.9893 14.6365 29.7075 14.551 29.3885" stroke="#B70000" stroke-width="2" stroke-linecap="round"/>
<path d="M14.8181 21.5093C15.2913 20.7045 15.5283 20.3018 15.8666 20.2418C15.9548 20.2258 16.0453 20.2258 16.1336 20.2418C16.4718 20.3018 16.7088 20.7045 17.1821 21.5093L18.4331 23.6363C19.3073 25.1229 19.9895 26.7143 20.4633 28.3725C21.2336 31.0673 19.2108 33.75 16.4073 33.75H15.5928C12.7901 33.75 10.7666 31.0673 11.5368 28.3725C12.0106 26.7143 12.6928 25.1229 13.5671 23.6363L14.8181 21.5093Z" stroke="#B70000" stroke-width="2"/>
<rect x="25" y="24" width="5" height="6" stroke="#B70000" stroke-width="2"/>
<rect x="1" y="-1" width="18" height="39" rx="7" transform="matrix(1 0 0 -1 29 44)" stroke="#B70000" stroke-width="2"/>
<path d="M29 14H49" stroke="#B70000" stroke-width="2" stroke-linejoin="round"/>
<path d="M39 30.5001C38.6698 30.5001 38.3489 30.3912 38.0869 30.1902C37.8249 29.9893 37.6365 29.7075 37.551 29.3885" stroke="#B70000" stroke-width="2" stroke-linecap="round"/>
<path d="M37.8181 21.5093C38.2913 20.7045 38.5283 20.3018 38.8666 20.2418C38.9548 20.2258 39.0453 20.2258 39.1336 20.2418C39.4718 20.3018 39.7088 20.7045 40.1821 21.5093L41.4331 23.6363C42.3073 25.1229 42.9895 26.7143 43.4633 28.3725C44.2336 31.0673 42.2108 33.75 39.4073 33.75H38.5928C35.7901 33.75 33.7666 31.0673 34.5368 28.3725C35.0106 26.7143 35.6928 25.1229 36.5671 23.6363L37.8181 21.5093Z" stroke="#B70000" stroke-width="2"/>
</svg>
