<svg width="56" height="56" viewBox="0 0 56 56" fill="none" xmlns="http://www.w3.org/2000/svg">
<rect x="-1" y="1" width="20" height="18" transform="matrix(-1 0 0 1 37 31)" stroke="#B70000" stroke-width="2" stroke-linejoin="round"/>
<path d="M18.8672 32C20.1952 29.9178 21.1154 28.0592 21.6523 26.0957C22.2434 23.9342 22.3532 21.7087 22.1094 19H33.9111C33.6927 21.9492 33.8216 24.2944 34.4229 26.4746C34.9512 28.3905 35.8306 30.1275 37.0762 32H18.8672Z" stroke="#B70000" stroke-width="2" stroke-linejoin="round"/>
<path d="M31 42H25C23.3431 42 22 43.3431 22 45V50H34V45C34 43.3431 32.6569 42 31 42Z" stroke="#B70000" stroke-width="2" stroke-linejoin="round"/>
<path d="M7 36H18V50H6V37C6 36.4477 6.44772 36 7 36Z" stroke="#B70000" stroke-width="2" stroke-linejoin="round"/>
<path d="M5 43H11" stroke="#B70000" stroke-width="2" stroke-linejoin="round"/>
<path d="M45 43H51" stroke="#B70000" stroke-width="2" stroke-linejoin="round"/>
<path d="M20 19H36" stroke="#B70000" stroke-width="2" stroke-linecap="round" stroke-linejoin="round"/>
<path d="M49 36C49.5523 36 50 36.4477 50 37V50H38V36H49Z" stroke="#B70000" stroke-width="2" stroke-linejoin="round"/>
<path d="M30 9H29C29 9.55228 29.4477 10 30 10V9ZM34 15V16V15ZM26 12H27C27 11.4477 26.5523 11 26 11V12ZM22 6V5V6ZM27 6V7C28.1046 7 29 7.89543 29 9H30H31C31 6.79086 29.2091 5 27 5V6ZM30 9V10H34V9V8H30V9ZM34 9V10C35.1046 10 36 10.8954 36 12H37H38C38 9.79086 36.2091 8 34 8V9ZM37 12H36C36 13.1046 35.1046 14 34 14V15V16C36.2091 16 38 14.2091 38 12H37ZM34 15V14H29V15V16H34V15ZM29 15V14C27.8954 14 27 13.1046 27 12H26H25C25 14.2091 26.7909 16 29 16V15ZM26 12V11H22V12V13H26V12ZM22 12V11C20.8954 11 20 10.1046 20 9H19H18C18 11.2091 19.7909 13 22 13V12ZM19 9H20C20 7.89543 20.8954 7 22 7V6V5C19.7909 5 18 6.79086 18 9H19ZM22 6V7H27V6V5H22V6Z" fill="#B70000"/>
</svg>
