<svg width="56" height="56" viewBox="0 0 56 56" fill="none" xmlns="http://www.w3.org/2000/svg">
<path d="M22.6198 24.8381C22.6834 23.8471 21.9319 22.9925 20.9409 22.9289L18.8754 22.7963C17.8829 22.7326 17.0283 23.4841 16.9647 24.4751C16.9123 25.2923 16.3074 25.9576 15.5262 26.2084C15.4024 26.2496 15.2799 26.2919 15.1589 26.3353C14.3873 26.6122 13.5016 26.456 12.959 25.8406C12.644 25.4832 12.2 25.2653 11.7246 25.2348C11.2491 25.2042 10.7809 25.3636 10.4228 25.6778L8.8671 27.0458C8.50966 27.3608 8.29178 27.8048 8.26126 28.2802C8.23074 28.7557 8.39007 29.2239 8.70429 29.5821C9.24673 30.1989 9.28852 31.0959 8.91225 31.827C8.85313 31.942 8.79598 32.0581 8.74084 32.1751C8.39221 32.9179 7.65505 33.4327 6.8379 33.3803C5.84686 33.3167 4.9923 34.0681 4.92868 35.0592L4.79601 37.1261C4.73239 38.1171 5.48386 38.9717 6.4749 39.0353C7.29205 39.0878 7.95734 39.6926 8.20814 40.4739C8.24941 40.5977 8.29124 40.7201 8.33363 40.8411C8.61202 41.6128 8.45579 42.4985 7.84036 43.041C7.48292 43.3561 7.26504 43.8 7.23452 44.2755C7.204 44.751 7.36333 45.2191 7.67755 45.5773L9.04554 47.133C9.36058 47.4904 9.80454 47.7083 10.28 47.7388C10.7555 47.7693 11.2237 47.61 11.5818 47.2958C12.1987 46.7533 13.0957 46.7115 13.8268 47.0864C13.9413 47.1458 14.0574 47.2034 14.1749 47.2592C14.9177 47.6078 15.4325 48.345 15.3801 49.1622C15.3165 50.1532 16.0679 51.0078 17.059 51.0714L19.1259 51.204C20.1169 51.2677 20.9715 50.5162 21.0351 49.5252C21.0875 48.708 21.6924 48.0427 22.4738 47.7905C22.5974 47.7511 22.7198 47.7098 22.8409 47.6664C23.6126 47.3866 24.4983 47.5443 25.0394 48.1596C25.3544 48.5175 25.7987 48.7356 26.2745 48.7662C26.7503 48.7967 27.2188 48.6372 27.5771 48.3225L29.1327 46.9545C29.4902 46.6395 29.708 46.1955 29.7386 45.72C29.7691 45.2446 29.6098 44.7764 29.2955 44.4182C28.7531 43.8014 28.7113 42.9044 29.0862 42.1732C29.1456 42.0587 29.2032 41.9427 29.259 41.8251C29.6076 41.0824 30.3448 40.5675 31.1619 40.62C32.153 40.6836 33.0075 39.9321 33.0711 38.9411L33.2037 36.8756C33.2673 35.8845 32.5159 35.03 31.5248 34.9664C30.7077 34.9139 30.0424 34.3091 29.7902 33.5277C29.7504 33.4046 29.7086 33.2822 29.6647 33.1605C29.3877 32.3889 29.5439 31.5032 30.1594 30.9607C30.5168 30.6456 30.7347 30.2017 30.7652 29.7262C30.7957 29.2507 30.6364 28.7826 30.3222 28.4244L28.9542 26.8687C28.6392 26.5113 28.1952 26.2934 27.7197 26.2629C27.2442 26.2324 26.7761 26.3917 26.4179 26.7059C25.8011 27.2484 24.904 27.2902 24.1729 26.9153C24.0579 26.8557 23.9418 26.7981 23.8248 26.7425C23.0821 26.3924 22.5674 25.6539 22.6198 24.8381Z" stroke="#B70000" stroke-width="2"/>
<path d="M24.6666 37.0002C24.6666 38.5031 24.0696 39.9444 23.0069 41.0071C21.9442 42.0698 20.5029 42.6668 19 42.6668C17.4971 42.6668 16.0557 42.0698 14.993 41.0071C13.9303 39.9444 13.3333 38.5031 13.3333 37.0002C13.3333 35.4973 13.9303 34.0559 14.993 32.9932C16.0557 31.9305 17.4971 31.3335 19 31.3335C20.5029 31.3335 21.9442 31.9305 23.0069 32.9932C24.0696 34.0559 24.6666 35.4973 24.6666 37.0002Z" stroke="#B70000" stroke-width="2"/>
<path d="M14 26.5V7C14 5.34315 15.3431 4 17 4H50C51.6569 4 53 5.34315 53 7V40C53 41.6569 51.6569 43 50 43H29.5" stroke="#B70000" stroke-width="2"/>
<path d="M38 4V16H37.8027L36.5547 15.168L36 14.7979L35.4453 15.168L34.5 15.7979L33.5547 15.168L33 14.7979L32.4453 15.168L31.5 15.7979L30.5547 15.168L30 14.7979L29.4453 15.168L28.1973 16H28V4H38Z" stroke="#B70000" stroke-width="2"/>
<rect x="39" y="34" width="2" height="6" fill="#B70000"/>
<rect x="42" y="34" width="2" height="6" fill="#B70000"/>
<rect x="45" y="34" width="2" height="6" fill="#B70000"/>
<rect x="48" y="34" width="2" height="6" fill="#B70000"/>
</svg>
